<?xml version="1.0" encoding="UTF-8" standalone="no"?>
<svg
   xmlns:dc="http://purl.org/dc/elements/1.1/"
   xmlns:cc="http://creativecommons.org/ns#"
   xmlns:rdf="http://www.w3.org/1999/02/22-rdf-syntax-ns#"
   xmlns:svg="http://www.w3.org/2000/svg"
   xmlns="http://www.w3.org/2000/svg"
   xmlns:sodipodi="http://sodipodi.sourceforge.net/DTD/sodipodi-0.dtd"
   xmlns:inkscape="http://www.inkscape.org/namespaces/inkscape"
   inkscape:export-ydpi="576"
   inkscape:export-xdpi="576"
   inkscape:export-filename="E:\Project\1 - Carlos Project\012 - School And Education\Send\1 - Line\2 - Whiteboard And Maker.png"
   width="64pt"
   height="64pt"
   viewBox="0 0 22.577778 22.577778"
   version="1.1"
   id="svg831"
   inkscape:version="1.0 (4035a4fb49, 2020-05-01)"
   sodipodi:docname="2 - Whiteboard And Maker.svg"
   style="fill:#white;">

  <defs
     id="defs825">
    <pattern
       id="EMFhbasepattern"
       patternUnits="userSpaceOnUse"
       width="6"
       height="6"
       x="0"
       y="0" />
    <pattern
       id="EMFhbasepattern-9"
       patternUnits="userSpaceOnUse"
       width="6"
       height="6"
       x="0"
       y="0" />
    <pattern
       id="EMFhbasepattern-0"
       patternUnits="userSpaceOnUse"
       width="6"
       height="6"
       x="0"
       y="0" />
    <pattern
       id="EMFhbasepattern-7"
       patternUnits="userSpaceOnUse"
       width="6"
       height="6"
       x="0"
       y="0" />
    <pattern
       id="EMFhbasepattern-2"
       patternUnits="userSpaceOnUse"
       width="6"
       height="6"
       x="0"
       y="0" />
    <pattern
       id="EMFhbasepattern-98"
       patternUnits="userSpaceOnUse"
       width="6"
       height="6"
       x="0"
       y="0" />
    <pattern
       id="EMFhbasepattern-6"
       patternUnits="userSpaceOnUse"
       width="6"
       height="6"
       x="0"
       y="0" />
    <pattern
       id="EMFhbasepattern-01"
       patternUnits="userSpaceOnUse"
       width="6"
       height="6"
       x="0"
       y="0" />
    <pattern
       id="EMFhbasepattern-07"
       patternUnits="userSpaceOnUse"
       width="6"
       height="6"
       x="0"
       y="0" />
    <pattern
       id="EMFhbasepattern-8"
       patternUnits="userSpaceOnUse"
       width="6"
       height="6"
       x="0"
       y="0" />
    <pattern
       id="EMFhbasepattern-4"
       patternUnits="userSpaceOnUse"
       width="6"
       height="6"
       x="0"
       y="0" />
    <pattern
       id="EMFhbasepattern-40"
       patternUnits="userSpaceOnUse"
       width="6"
       height="6"
       x="0"
       y="0" />
    <pattern
       id="EMFhbasepattern-08"
       patternUnits="userSpaceOnUse"
       width="6"
       height="6"
       x="0"
       y="0" />
    <pattern
       id="EMFhbasepattern-04"
       patternUnits="userSpaceOnUse"
       width="6"
       height="6"
       x="0"
       y="0" />
    <pattern
       id="EMFhbasepattern-014"
       patternUnits="userSpaceOnUse"
       width="6"
       height="6"
       x="0"
       y="0" />
    <pattern
       id="EMFhbasepattern-27"
       patternUnits="userSpaceOnUse"
       width="6"
       height="6"
       x="0"
       y="0" />
    <pattern
       id="EMFhbasepattern-09"
       patternUnits="userSpaceOnUse"
       width="6"
       height="6"
       x="0"
       y="0" />
    <pattern
       id="EMFhbasepattern-5"
       patternUnits="userSpaceOnUse"
       width="6"
       height="6"
       x="0"
       y="0" />
    <pattern
       id="EMFhbasepattern-018"
       patternUnits="userSpaceOnUse"
       width="6"
       height="6"
       x="0"
       y="0" />
  </defs>
  <sodipodi:namedview
     id="base"
     pagecolor="#ffffff"
     bordercolor="#666666"
     borderopacity="1.0"
     inkscape:pageopacity="0.0"
     inkscape:pageshadow="2"
     inkscape:zoom="5.671875"
     inkscape:cx="42.666667"
     inkscape:cy="42.666667"
     inkscape:document-units="pt"
     inkscape:current-layer="layer1"
     showgrid="false"
     units="pt"
     inkscape:window-width="1366"
     inkscape:window-height="716"
     inkscape:window-x="-8"
     inkscape:window-y="-8"
     inkscape:window-maximized="1"
     inkscape:pagecheckerboard="true"
     inkscape:showpageshadow="false"
     inkscape:object-paths="true"
     inkscape:snap-intersection-paths="true"
     inkscape:snap-smooth-nodes="true"
     inkscape:snap-midpoints="true"
     showguides="true"
     inkscape:snap-bbox="true"
     inkscape:bbox-nodes="true"
     inkscape:snap-nodes="false"
     inkscape:snap-global="true"
     inkscape:document-rotation="0">
    <inkscape:grid
       type="xygrid"
       id="grid1378" />
    <sodipodi:guide
       position="0.97013831,21.607643"
       orientation="78.000048,0"
       id="guide1380"
       inkscape:locked="false" />
    <sodipodi:guide
       position="0.97013831,0.97013129"
       orientation="0,78.000005"
       id="guide1382"
       inkscape:locked="false" />
    <sodipodi:guide
       position="21.607639,0.97013129"
       orientation="-78.000048,0"
       id="guide1384"
       inkscape:locked="false" />
    <sodipodi:guide
       position="21.607639,21.607643"
       orientation="0,-78.000005"
       id="guide1386"
       inkscape:locked="false" />
  </sodipodi:namedview>
  <metadata
     id="metadata828">
    <rdf:RDF>
      <cc:Work
         rdf:about="">
        <dc:format>image/svg+xml</dc:format>
        <dc:type
           rdf:resource="http://purl.org/dc/dcmitype/StillImage" />
        <dc:title></dc:title>
      </cc:Work>
    </rdf:RDF>
  </metadata>
  <g
     inkscape:label="Icon"
     inkscape:groupmode="layer"
     id="layer1"
     transform="translate(0,-274.42223)">
    <path
       id="path744"
       style="font-style:normal;font-variant:normal;font-weight:normal;font-stretch:normal;font-size:medium;line-height:normal;font-family:sans-serif;font-variant-ligatures:normal;font-variant-position:normal;font-variant-caps:normal;font-variant-numeric:normal;font-variant-alternates:normal;font-variant-east-asian:normal;font-feature-settings:normal;font-variation-settings:normal;text-indent:0;text-align:start;text-decoration:none;text-decoration-line:none;text-decoration-style:solid;text-decoration-color:#000000;letter-spacing:normal;word-spacing:normal;text-transform:none;writing-mode:lr-tb;direction:ltr;text-orientation:mixed;dominant-baseline:auto;baseline-shift:baseline;text-anchor:start;white-space:normal;shape-padding:0;shape-margin:0;inline-size:0;clip-rule:nonzero;display:inline;overflow:visible;visibility:visible;opacity:1;isolation:auto;mix-blend-mode:normal;color-interpolation:sRGB;color-interpolation-filters:linearRGB;solid-color:#000000;solid-opacity:1;vector-effect:none;fill:#000000;fill-opacity:1;fill-rule:nonzero;stroke:none;stroke-width:0.665706;stroke-linecap:round;stroke-linejoin:round;stroke-miterlimit:1.5;stroke-dasharray:none;stroke-dashoffset:0;stroke-opacity:1;paint-order:markers fill stroke;color-rendering:auto;image-rendering:auto;shape-rendering:auto;text-rendering:auto;enable-background:accumulate;stop-color:#000000;stop-opacity:1"
       d="m 11.28792,276.22578 c -0.485769,0 -0.893593,0.35426 -0.979705,0.81652 l -3.9032162,2.84421 H 1.3023446 a 0.33288605,0.33288605 0 0 0 -0.33220428,0.33155 v 13.31541 a 0.33288605,0.33288605 0 0 0 0.33220428,0.33155 h 0.9998547 v 0.33414 a 0.33288605,0.33288605 0 0 0 0.098164,0.236 l 0.6637556,0.66569 a 0.33288605,0.33288605 0 0 0 0.2353363,0.0956 H 19.278328 a 0.33288605,0.33288605 0 0 0 0.233387,-0.0956 l 0.665703,-0.66569 a 0.33288605,0.33288605 0 0 0 0.09816,-0.236 v -0.33414 h 0.997907 a 0.33288605,0.33288605 0 0 0 0.334152,-0.33155 v -13.31541 a 0.33288605,0.33288605 0 0 0 -0.334152,-0.33155 h -5.100703 l -3.903867,-2.84485 c -0.0868,-0.46196 -0.495459,-0.81588 -0.981004,-0.81588 z m 0,0.66571 c 0.18777,0 0.334153,0.14378 0.334153,0.33155 0,0.18776 -0.146383,0.33415 -0.334153,0.33415 -0.187772,0 -0.332203,-0.14639 -0.332203,-0.33415 0,-0.18777 0.144431,-0.33155 0.332203,-0.33155 z m 0.837982,0.86918 2.916361,2.12584 H 7.5355269 l 2.9157101,-2.12518 c 0.178331,0.2752 0.487051,0.45962 0.836683,0.45962 0.349832,0 0.658976,-0.18481 0.837982,-0.46028 z m -10.489407,2.79155 h 0.6657043 v 0.9979 10.65129 0.9979 H 1.636495 Z m 1.3314097,0 H 19.609883 v 0.66635 H 2.9679047 Z m 17.3076853,0 h 0.665703 v 12.64709 H 20.27559 v -0.9979 -10.65129 z M 2.9679047,281.88428 H 19.609883 v 9.98557 h -2.059524 c 0.03789,-0.10517 0.06176,-0.21678 0.06176,-0.33415 v -0.33155 c 0,-0.54755 -0.449712,-1.00051 -0.997257,-1.00051 H 10.95572 a 0.33288605,0.33288605 0 0 0 -0.183979,0.0566 l -0.999857,0.66635 a 0.33288605,0.33288605 0 0 0 -0.1475738,0.2776 v 0.33155 a 0.33288605,0.33288605 0 0 0 0.1475738,0.27759 l 0.085168,0.0566 H 8.9586067 v -1.99777 c 0,-0.36372 -0.3026382,-0.66571 -0.6663549,-0.66571 H 4.2999726 c -0.3637179,0 -0.6663573,0.30199 -0.6663573,0.66571 v 1.99777 H 2.9679099 Z m 1.3320626,0.66569 c -0.1838942,-7.3e-4 -0.3335213,0.14767 -0.334154,0.33156 6.657e-4,0.1839 0.1502598,0.33293 0.334154,0.3322 v 1.33141 h -0.334154 a 0.33285276,0.33285276 0 0 0 -0.332203,0.33416 0.33285276,0.33285276 0 0 0 0.332203,0.33155 h 1.3314109 a 0.33285276,0.33285276 0 0 0 0.334153,-0.33155 0.33285276,0.33285276 0 0 0 -0.334153,-0.33416 H 4.9656731 v -1.66361 c -6.657e-4,-0.18389 -0.15027,-0.33226 -0.3341543,-0.33156 z m 4.9927871,0 c -0.5475455,0 -1.0005075,0.45037 -1.0005075,0.99792 a 0.33285276,0.33285276 0 0 0 0.334153,0.33155 0.33285276,0.33285276 0 0 0 0.3322018,-0.33155 c 0,-0.18777 0.1463812,-0.33416 0.3341527,-0.33416 0.1877704,0 0.3315528,0.14639 0.3315528,0.33416 0,0.0555 -0.025703,0.1175 -0.1157132,0.21127 -0.090012,0.0937 -0.2353427,0.19837 -0.3933116,0.29711 -0.1579691,0.0988 -0.325659,0.19206 -0.4739247,0.2971 -0.074136,0.0525 -0.1452842,0.10542 -0.2112839,0.18202 -0.065996,0.0766 -0.137822,0.19135 -0.137822,0.34391 a 0.33288605,0.33288605 0 0 0 0.3341531,0.33155 H 9.9584651 A 0.33285276,0.33285276 0 0 0 10.290018,284.8793 0.33285276,0.33285276 0 0 0 9.9584651,284.54514 H 9.5677539 c 0.1439181,-0.0939 0.2935313,-0.18999 0.4225656,-0.32439 0.1596235,-0.16628 0.2996985,-0.39549 0.2996985,-0.67286 0,-0.54755 -0.4497128,-0.99792 -0.9972587,-0.99792 z m -2.3319174,0.33156 a 0.33285276,0.33285276 0 0 0 -0.3315525,0.3322 v 0.33416 h -0.334153 a 0.33285276,0.33285276 0 0 0 -0.3322028,0.33155 0.33285276,0.33285276 0 0 0 0.3322028,0.33415 h 0.334153 v 0.33155 a 0.33285276,0.33285276 0 0 0 0.3315525,0.33416 0.33285276,0.33285276 0 0 0 0.334153,-0.33416 v -0.33155 h 0.3315514 a 0.33285276,0.33285276 0 0 0 0.334153,-0.33415 0.33285276,0.33285276 0 0 0 -0.334153,-0.33155 H 7.29499 v -0.33416 a 0.33285276,0.33285276 0 0 0 -0.334153,-0.3322 z m 4.327083,0 a 0.33285276,0.33285276 0 0 0 -0.332203,0.3322 0.33285276,0.33285276 0 0 0 0.332203,0.33416 h 1.33141 a 0.33285276,0.33285276 0 0 0 0.334153,-0.33416 0.33285276,0.33285276 0 0 0 -0.334153,-0.3322 z m 0,1.33206 a 0.33285276,0.33285276 0 0 0 -0.332203,0.33155 0.33285276,0.33285276 0 0 0 0.332203,0.33416 h 1.33141 a 0.33285276,0.33285276 0 0 0 0.334153,-0.33416 0.33285276,0.33285276 0 0 0 -0.334153,-0.33155 z m 2.66347,0.33155 a 0.33285276,0.33285276 0 0 0 -0.332202,0.33416 0.33285276,0.33285276 0 0 0 0.332202,0.33155 h 0.334153 a 0.33285276,0.33285276 0 0 0 0.331553,-0.33155 0.33285276,0.33285276 0 0 0 -0.331553,-0.33416 z m 1.665564,0 a 0.33285276,0.33285276 0 0 0 -0.334153,0.33416 0.33285276,0.33285276 0 0 0 0.334153,0.33155 h 0.33155 a 0.33285276,0.33285276 0 0 0 0.332204,-0.33155 0.33285276,0.33285276 0 0 0 -0.332204,-0.33416 z m -11.3169867,5.32695 h 3.9922796 v 0.6657 H 7.7663142 l -0.2353375,-0.23533 a 0.33288605,0.33288605 0 0 0 -0.245739,-0.0989 0.33288605,0.33288605 0 0 0 -0.2262355,0.0989 l -0.2353378,0.23533 H 4.2999673 Z m 6.7565157,0.9979 h 0.231437 v 0.99986 h -0.231437 l -0.748918,-0.50123 z m 0.897142,0 h 3.663329 v 0.99986 h -3.663329 z m 4.327083,0 h 0.334153 c 0.187772,0 0.33155,0.14638 0.331553,0.33416 v 0.33155 c 0,0.18777 -0.143781,0.33415 -0.331553,0.33415 h -0.334153 z m -11.9807407,0.33416 h 3.9922796 v 0.6657 H 4.2999673 Z m -1.3320626,1.3314 H 19.609883 v 0.66376 H 2.9679047 Z m 0,1.32947 H 19.609883 v 0.19633 l -0.469373,0.46937 H 3.4372803 l -0.4693756,-0.46937 z"
        />
  </g>
</svg>
